<svg width="52" height="48" viewBox="0 0 52 48" fill="none" xmlns="http://www.w3.org/2000/svg">
<path d="M1 26V13.5C1 7.60625 1 4.6625 2.83125 2.83125C4.6625 1 7.60625 1 13.5 1H14.5719C17.1281 1 18.4031 1 19.5531 1.475C20.7031 1.95 21.6062 2.85625 23.4125 4.6625L25.4625 6.7125C27.2719 8.51875 28.1719 9.425 29.3219 9.9C30.4719 10.375 31.75 10.375 34.3031 10.375H38.5C44.3938 10.375 47.3375 10.375 49.1687 12.2063C51 14.0375 51 16.9812 51 22.875V32.25C51 38.1438 51 41.0875 49.1687 42.9187C47.3375 44.75 44.3938 44.75 38.5 44.75H22.875M1 38.5H16.625M16.625 38.5L8.8125 30.6875M16.625 38.5L8.8125 46.3125" stroke="#3B73FF" stroke-width="2"/>
</svg>
